<?xml version="1.0" encoding="UTF-8" standalone="no"?>
<!DOCTYPE svg PUBLIC "-//W3C//DTD SVG 1.1//EN" "http://www.w3.org/Graphics/SVG/1.1/DTD/svg11.dtd">
<svg width="100%" height="100%" viewBox="0 0 640 449" version="1.1" xmlns="http://www.w3.org/2000/svg" xmlns:xlink="http://www.w3.org/1999/xlink" xml:space="preserve" xmlns:serif="http://www.serif.com/" style="fill-rule:evenodd;clip-rule:evenodd;stroke-linejoin:round;stroke-miterlimit:2;">
    <g transform="matrix(1,0,0,1,0,-31.9587)">
        <path d="M96,224C131.3,224 160,195.3 160,160C160,124.7 131.3,96 96,96C60.7,96 32,124.7 32,160C32,195.3 60.7,224 96,224ZM544,224C579.3,224 608,195.3 608,160C608,124.7 579.3,96 544,96C508.7,96 480,124.7 480,160C480,195.3 508.7,224 544,224ZM576,256L512,256C494.4,256 478.5,263.1 466.9,274.6C507.2,296.7 535.8,336.6 542,384L608,384C625.7,384 640,369.7 640,352L640,320C640,284.7 611.3,256 576,256ZM173.1,274.6C161.5,263.1 145.6,256 128,256L64,256C28.7,256 0,284.7 0,320L0,352C0,369.7 14.3,384 32,384L97.9,384C104.2,336.6 132.8,296.7 173.1,274.6Z" style="fill-rule:nonzero;"/>
        <g transform="matrix(0.876598,0,0,0.876598,123.642,31.9587)">
            <path d="M224,256C294.7,256 352,198.7 352,128C352,57.3 294.7,0 224,0C153.3,0 96,57.3 96,128C96,198.7 153.3,256 224,256ZM104,424C104,437.3 114.7,448 128,448C141.3,448 152,437.3 152,424C152,410.7 141.3,400 128,400C114.7,400 104,410.7 104,424ZM320,288.6L320,337.6C356.5,345 384,377.4 384,416L384,457.7C384,465.3 378.6,471.9 371.1,473.4L338.9,479.8C334.6,480.7 330.4,477.9 329.5,473.5L326.4,457.8C325.5,453.5 328.3,449.2 332.7,448.4L352,444.5L352,416C352,353.2 256,350.9 256,417.9L256,444.6L275.3,448.5C279.6,449.4 282.4,453.6 281.6,457.9L278.5,473.6C277.6,477.9 273.4,480.7 269.1,479.9L237.9,475.7C230,474.6 224.1,467.9 224.1,459.8L224.1,416C224.1,377.4 251.6,345.1 288.1,337.6L288.1,292.4C285.9,293.1 283.7,293.5 281.5,294.3C263.5,300.6 244.2,304.1 224.1,304.1C204,304.1 184.7,300.6 166.7,294.3C159.3,291.7 151.8,290.1 144.1,289.1L144.1,370.7C167.2,377.6 184.1,398.8 184.1,424.1C184.1,455 159,480.1 128.1,480.1C97.2,480.1 72.1,455 72.1,424.1C72.1,398.8 89,377.6 112.1,370.7L112.1,290.3C48.5,301 0,355.8 0,422.4L0,467.2C0,491.9 20.1,512 44.8,512L403.2,512C427.9,512 448,491.9 448,467.2L448,422.4C448,350.4 391.2,292.1 320,288.6Z" style="fill-rule:nonzero;"/>
        </g>
    </g>
</svg>
