<?xml version="1.0" encoding="UTF-8" standalone="no"?>
<!DOCTYPE svg PUBLIC "-//W3C//DTD SVG 1.1//EN" "http://www.w3.org/Graphics/SVG/1.1/DTD/svg11.dtd">
<svg width="100%" height="100%" viewBox="0 0 574 195" version="1.1" xmlns="http://www.w3.org/2000/svg" xmlns:xlink="http://www.w3.org/1999/xlink" xml:space="preserve" xmlns:serif="http://www.serif.com/" style="fill-rule:evenodd;clip-rule:evenodd;stroke-linejoin:round;stroke-miterlimit:2;">
    <g transform="matrix(1,0,0,1,-407.805,-348.721)">
        <g id="a" transform="matrix(1,0,0,1,78.985,222.22)">
            <path d="M415.721,287.633C415.281,275.753 416.821,256.833 420.341,238.353L431.121,182.912C423.861,180.492 412.641,178.732 402.52,178.732C356.1,178.732 328.82,217.892 328.82,254.853C328.82,275.093 340.7,290.053 359.4,290.053C374.58,290.053 389.1,282.133 400.76,260.133L401.2,260.133C399.88,271.133 398.78,281.253 398.78,287.633L415.721,287.633ZM404.501,226.912C399.22,255.293 381.18,275.093 366,275.093C351.92,275.093 347.74,263.433 347.74,251.553C347.96,222.072 370.4,193.252 397.9,193.252C404.06,193.252 408.02,194.132 410.661,194.792L404.501,226.912Z" style="fill:white;fill-rule:nonzero;"/>
        </g>
        <g id="p-copy" serif:id="p copy" transform="matrix(1,0,0,1,78.985,222.22)">
            <path d="M454.62,270.813L459.9,241.113C465.4,211.412 483.44,194.912 497.74,194.912C513.14,194.912 519.152,208.373 518.2,219.552C515.798,247.765 499.98,279.005 464.239,275.173C464.175,275.13 466.687,288.936 466.581,289.025C506.214,293.803 536.122,255.557 537.121,218.232C537.644,198.659 527.441,179.732 504.34,179.732C489.82,179.732 475.74,188.312 466.06,202.172L465.62,202.172L468.7,182.152L451.98,182.152C450.44,192.932 448.24,207.232 446.04,219.992L431.265,307.205L445.017,321.487L451.32,286.213L454.62,270.813Z" style="fill:white;fill-rule:nonzero;"/>
        </g>
        <g id="r" transform="matrix(1,0,0,1,78.985,222.22)">
            <path d="M560.42,288.633L569.22,241.773C573.84,216.912 587.92,197.772 603.76,197.772C605.74,197.772 607.5,197.992 608.6,198.212L612.12,180.172C610.8,179.952 608.6,179.732 607.06,179.732C592.76,179.732 581.32,190.732 574.5,205.252L573.84,205.252C574.94,197.112 575.82,189.632 576.7,182.152L560.64,182.152C559.54,192.052 557.78,206.132 555.14,219.992L542.16,288.633L560.42,288.633Z" style="fill:white;fill-rule:nonzero;"/>
        </g>
        <g id="e" transform="matrix(1,0,0,1,78.985,222.22)">
            <path d="M678.3,267.833C671.7,271.353 662.24,275.313 649.7,275.313C638.7,275.313 630.12,270.473 625.94,261.013C623.52,255.293 622.86,245.393 623.74,240.773C663.12,241.433 694.581,233.953 694.581,206.012C694.581,190.832 683.58,178.732 663.34,178.732C629.02,178.732 605.26,215.032 605.26,247.153C605.26,270.693 617.591,290.601 645.74,289.833C655.704,289.561 659.003,288.847 666.615,286.736L678.3,267.833ZM676.98,206.672C676.98,223.172 654.54,226.912 625.94,226.692C630.34,209.972 643.32,193.032 660.7,193.032C670.38,193.032 676.98,197.872 676.98,206.672Z" style="fill:white;fill-rule:nonzero;"/>
        </g>
        <g id="x" transform="matrix(1,0,0,1,78.985,222.22)">
            <path d="M704.86,181.152L729.5,232.853L682.86,287.633L703.98,287.633L725.54,261.013C730.16,254.633 733.24,249.793 736.54,244.733L736.98,244.733C739.62,251.553 741.16,255.733 744.68,263.653L755.46,287.633L775.26,287.633L750.18,233.073L795.061,181.152L773.94,181.152L754.36,205.352C749.08,211.952 746.88,215.472 742.7,221.412L742.04,221.412C740.06,216.572 737.86,211.292 735,204.472L724.66,181.152L704.86,181.152Z" style="fill:white;fill-rule:nonzero;"/>
        </g>
        <g id="i" transform="matrix(1,0,0,1,78.985,222.22)">
            <path d="M805.42,288.633L825.88,182.152L807.62,182.152L787.16,288.633L805.42,288.633Z" style="fill:white;fill-rule:nonzero;"/>
        </g>
        <g id="i-copy" serif:id="i copy" transform="matrix(1,0,0,1,78.985,222.22)">
            <path d="M822.23,165.142C830.975,164.043 835.817,157.378 835.817,157.378L865.869,126.501L823.77,141.382C823.77,141.382 811.67,146.662 811.67,153.702C811.67,160.302 815.896,164.377 822.23,165.142Z" style="fill:rgb(213,40,0);fill-rule:nonzero;"/>
        </g>
        <g id="s" transform="matrix(1,0,0,1,78.985,222.22)">
            <path d="M826.98,282.573C831.82,286.313 841.94,289.833 853.38,289.833C875.82,289.833 894.08,277.293 894.08,254.853C894.08,242.973 885.94,233.733 874.06,226.912C864.6,221.632 859.54,216.792 859.54,209.092C859.54,199.852 867.46,193.032 878.46,193.032C886.38,193.032 893.2,195.672 896.94,197.872L902,184.012C898.04,181.372 889.46,178.732 879.78,178.732C857.34,178.732 841.28,193.032 841.28,211.732C841.28,222.512 848.1,231.973 860.42,238.793C871.42,244.953 875.16,250.013 875.16,258.373C875.16,267.833 867.24,275.753 854.92,275.753C846.34,275.753 837.1,272.233 832.04,269.153L826.98,282.573Z" style="fill:white;fill-rule:nonzero;"/>
        </g>
    </g>
</svg>
